<svg width="14" height="15" viewBox="0 0 14 15" fill="none" xmlns="http://www.w3.org/2000/svg">
<path d="M7.58366 13.7709H2.91699C1.50533 13.7709 0.729492 12.9951 0.729492 11.5834V6.91675C0.729492 5.50508 1.50533 4.72925 2.91699 4.72925H5.83366C6.07283 4.72925 6.27116 4.92758 6.27116 5.16675V11.5834C6.27116 12.5051 6.66199 12.8959 7.58366 12.8959C7.82283 12.8959 8.02116 13.0942 8.02116 13.3334C8.02116 13.5726 7.82283 13.7709 7.58366 13.7709ZM2.91699 5.60425C1.99533 5.60425 1.60449 5.99508 1.60449 6.91675V11.5834C1.60449 12.5051 1.99533 12.8959 2.91699 12.8959H5.71698C5.50698 12.5517 5.39616 12.1142 5.39616 11.5834V5.60425H2.91699Z" fill="#8C97AF"/>
<path d="M5.83366 5.60408H2.91699C2.67783 5.60408 2.47949 5.40575 2.47949 5.16658V3.99992C2.47949 3.11325 3.19699 2.39575 4.08366 2.39575H5.89782C6.03198 2.39575 6.16033 2.45991 6.242 2.56491C6.32367 2.67574 6.35282 2.81575 6.31782 2.94409C6.28282 3.07242 6.27116 3.21825 6.27116 3.41659V5.16658C6.27116 5.40575 6.07283 5.60408 5.83366 5.60408ZM3.35449 4.72908H5.39616V3.41659C5.39616 3.36409 5.39616 3.31742 5.39616 3.27075H4.08366C3.68116 3.27075 3.35449 3.59742 3.35449 3.99992V4.72908Z" fill="#8C97AF"/>
<path d="M8.16699 8.52091C7.92783 8.52091 7.72949 8.32258 7.72949 8.08341V5.16675C7.72949 4.92758 7.92783 4.72925 8.16699 4.72925C8.40616 4.72925 8.60449 4.92758 8.60449 5.16675V8.08341C8.60449 8.32258 8.40616 8.52091 8.16699 8.52091Z" fill="#8C97AF"/>
<path d="M10.5 8.52091C10.2608 8.52091 10.0625 8.32258 10.0625 8.08341V5.16675C10.0625 4.92758 10.2608 4.72925 10.5 4.72925C10.7392 4.72925 10.9375 4.92758 10.9375 5.16675V8.08341C10.9375 8.32258 10.7392 8.52091 10.5 8.52091Z" fill="#8C97AF"/>
<path d="M10.5003 13.7709H8.16699C7.92783 13.7709 7.72949 13.5726 7.72949 13.3334V11.0001C7.72949 10.4401 8.19033 9.97925 8.75033 9.97925H9.91699C10.477 9.97925 10.9378 10.4401 10.9378 11.0001V13.3334C10.9378 13.5726 10.7395 13.7709 10.5003 13.7709ZM8.60449 12.8959H10.0628V11.0001C10.0628 10.9184 9.99866 10.8542 9.91699 10.8542H8.75033C8.66866 10.8542 8.60449 10.9184 8.60449 11.0001V12.8959Z" fill="#8C97AF"/>
<path d="M3.5 10.8541C3.26083 10.8541 3.0625 10.6558 3.0625 10.4166V8.08325C3.0625 7.84409 3.26083 7.64575 3.5 7.64575C3.73917 7.64575 3.9375 7.84409 3.9375 8.08325V10.4166C3.9375 10.6558 3.73917 10.8541 3.5 10.8541Z" fill="#8C97AF"/>
<path d="M11.083 13.7709H7.58301C6.17134 13.7709 5.39551 12.9951 5.39551 11.5834V3.41675C5.39551 2.00508 6.17134 1.22925 7.58301 1.22925H11.083C12.4947 1.22925 13.2705 2.00508 13.2705 3.41675V11.5834C13.2705 12.9951 12.4947 13.7709 11.083 13.7709ZM7.58301 2.10425C6.66134 2.10425 6.27051 2.49508 6.27051 3.41675V11.5834C6.27051 12.5051 6.66134 12.8959 7.58301 12.8959H11.083C12.0047 12.8959 12.3955 12.5051 12.3955 11.5834V3.41675C12.3955 2.49508 12.0047 2.10425 11.083 2.10425H7.58301Z" fill="#8C97AF"/>
</svg>
