<svg width="260" height="230" viewBox="0 0 260 230" fill="none" xmlns="http://www.w3.org/2000/svg">
<path d="M157.33 210.01H15C11.0218 210.01 7.20642 208.43 4.39337 205.617C1.58033 202.804 0 198.988 0 195.01V15.01C0 11.0318 1.58033 7.21644 4.39337 4.4034C7.20642 1.59035 11.0218 0.0100098 15 0.0100098H225C228.978 0.0100098 232.794 1.59035 235.607 4.4034C238.42 7.21644 240 11.0318 240 15.01V127.33C235.337 124.373 230.29 122.072 225 120.49V15.01H15V195.01H150.49C152.063 200.303 154.365 205.351 157.33 210.01ZM170.93 48.01C170.93 42.4776 168.732 37.1718 164.82 33.2598C160.908 29.3477 155.602 27.15 150.07 27.15C144.538 27.15 139.232 29.3477 135.32 33.2598C131.408 37.1718 129.21 42.4776 129.21 48.01C129.21 53.5424 131.408 58.8482 135.32 62.7602C139.232 66.6722 144.538 68.87 150.07 68.87C155.602 68.87 160.908 66.6722 164.82 62.7602C168.732 58.8482 170.93 53.5424 170.93 48.01ZM29.99 109.92V180.01H148.1C148.1 179.33 148 178.68 148 178.01C148.016 162.102 154.342 146.85 165.591 135.601C176.84 124.352 192.092 118.026 208 118.01C208.67 118.01 209.33 118.09 210 118.11V79.92L150 124.92L75 64.92L29.99 109.92ZM259.99 178.01C259.99 188.295 256.94 198.348 251.226 206.9C245.513 215.451 237.391 222.116 227.89 226.052C218.388 229.988 207.932 231.017 197.845 229.011C187.758 227.004 178.493 222.052 171.22 214.78C163.948 207.507 158.996 198.242 156.989 188.155C154.983 178.068 156.012 167.612 159.948 158.11C163.884 148.609 170.549 140.487 179.1 134.774C187.652 129.06 197.705 126.01 207.99 126.01C214.82 126.009 221.583 127.353 227.893 129.965C234.203 132.578 239.936 136.408 244.766 141.237C249.596 146.066 253.427 151.799 256.041 158.108C258.655 164.418 260 171.18 260 178.01H259.99ZM237.65 201.54H178.35V210.01H237.65V201.54ZM237.65 167.65L208 138.01L178.35 167.65H195.29V193.06H220.71V167.65H237.65Z" fill="white"/>
</svg>
